<svg aria-hidden="true" style="position: absolute; width: 0; height: 0; overflow: hidden;" version="1.1" xmlns="http://www.w3.org/2000/svg" xmlns:xlink="http://www.w3.org/1999/xlink">
<defs>
<symbol id="icon-antenna" viewBox="0 0 32 32">
<path  d="M30.766 22.080l-8.457-8.503 0.96-4.571c0.229 0.046 0.457 0.137 0.777 0.137 0.007 0 0.016 0 0.025 0 1.187 0 2.149-0.962 2.149-2.149s-0.962-2.149-2.149-2.149c-1.187 0-2.149 0.962-2.149 2.149 0 0.245 0.041 0.481 0.117 0.701l-0.005-0.015-4.983 0.594-8.091-8.137c-0.091-0.091-0.229-0.137-0.366-0.137s-0.274 0.046-0.366 0.137l-1.509 1.509c-0.229 0.229-0.229 0.549 0 0.777l0.823 0.777c-1.129 2.053-1.794 4.499-1.794 7.1 0 4.161 1.7 7.925 4.444 10.635l0.002 0.002-0.046 0.549v6.217h-6.4c-0.014-0-0.030-0-0.046-0-1.464 0-2.651 1.187-2.651 2.651 0 0 0 0 0 0v-0 1.051c0 0.32 0.274 0.549 0.549 0.549h24.549c0.274 0 0.503-0.229 0.503-0.549v-1.051c0-1.463-1.189-2.651-2.651-2.651h-6.4v-2.743c0.899 0.191 1.932 0.3 2.991 0.3 2.586 0 5.020-0.653 7.146-1.803l-0.080 0.039 0.869 0.823c0.091 0.091 0.229 0.137 0.366 0.137s0.274-0.046 0.366-0.137l1.509-1.509c0.229-0.229 0.229-0.549 0-0.777zM23.314 6.217c0.186-0.169 0.434-0.272 0.706-0.272 0.581 0 1.051 0.471 1.051 1.051 0 0.555-0.431 1.010-0.976 1.049l-0.003 0c-0.021 0.002-0.046 0.002-0.072 0.002-0.581 0-1.051-0.471-1.051-1.051 0-0.309 0.133-0.586 0.345-0.779l0.001-0.001zM22.080 9.737l-0.594 2.926-1.189-1.143 1.783-1.783zM21.486 8.823l-1.92 1.92-1.509-1.509 3.429-0.411zM24 28.8c0.914 0 1.6 0.731 1.6 1.6v0.549h-23.451v-0.549c0-0.914 0.686-1.6 1.6-1.6h20.251zM16.549 26.651v1.097h-5.349v-1.097h5.349zM11.2 25.6v-4.069c0-1.28 1.189-2.331 2.651-2.331 1.509 0 2.697 1.051 2.697 2.331v4.069h-5.349zM17.6 23.909v-2.423c0-1.829-1.691-3.383-3.749-3.383-1.326 0-2.56 0.64-3.246 1.783-2.369-2.481-3.827-5.85-3.827-9.559 0-2.319 0.57-4.505 1.578-6.426l-0.036 0.076 18.606 18.743c-1.816 0.94-3.965 1.492-6.242 1.492-1.093 0-2.157-0.127-3.177-0.367l0.094 0.019zM28.891 23.223l-0.731-0.823-19.566-19.657-0.823-0.686 0.777-0.777 7.909 8 13.257 13.12-0.777 0.777z"></path>
<path  d="M13.897 20.251c-0.884 0-1.6 0.716-1.6 1.6s0.716 1.6 1.6 1.6v0c0.884 0 1.6-0.716 1.6-1.6s-0.716-1.6-1.6-1.6v0zM14.263 22.263c-0.101 0.112-0.247 0.183-0.409 0.183-0.303 0-0.549-0.246-0.549-0.549s0.244-0.547 0.546-0.549h0c0.001 0 0.002 0 0.003 0 0.303 0 0.549 0.246 0.549 0.549 0 0.141-0.053 0.269-0.14 0.366l0-0z"></path>
</symbol>
<symbol id="icon-astronaut" viewBox="0 0 32 32">
<path  d="M31.974 4.524c-0.064-0.191-0.227-0.332-0.427-0.362l-0.003-0-1.91-0.278-0.855-1.731c-0.179-0.365-0.777-0.365-0.956 0l-0.855 1.731-1.91 0.278c-0.203 0.030-0.367 0.171-0.43 0.359l-0.001 0.004c-0.062 0.193-0.011 0.405 0.135 0.547l1.383 1.348-0.326 1.903c-0.034 0.2 0.048 0.402 0.212 0.522 0.087 0.064 0.196 0.102 0.313 0.102 0.091 0 0.177-0.023 0.252-0.063l-0.003 0.001 1.709-0.899 1.709 0.899c0.078 0.041 0.164 0.061 0.249 0.061 0.11 0 0.221-0.034 0.314-0.102 0.134-0.098 0.22-0.254 0.22-0.431 0-0.032-0.003-0.063-0.008-0.094l0 0.003-0.326-1.903 1.383-1.348c0.099-0.097 0.161-0.233 0.161-0.382 0-0.059-0.009-0.115-0.027-0.168l0.001 0.004zM29.511 5.851c-0.099 0.097-0.161 0.232-0.161 0.382 0 0.032 0.003 0.063 0.008 0.094l-0-0.003 0.191 1.114-1-0.526c-0.072-0.039-0.157-0.061-0.248-0.061-0 0-0 0-0.001 0h0c-0.085 0-0.17 0.020-0.249 0.061l-1.001 0.526 0.191-1.114c0.005-0.027 0.008-0.058 0.008-0.090 0-0.15-0.062-0.285-0.161-0.382l-0.81-0.789 1.119-0.163c0.177-0.026 0.324-0.137 0.4-0.289l0.001-0.003 0.5-1.013 0.5 1.013c0.078 0.157 0.228 0.267 0.402 0.292l1.119 0.163-0.809 0.789zM26.134 20.522h-1.067v1.067h1.067v-1.067zM26.134 22.656h-1.067v1.067h1.067v-1.067zM27.2 21.589h-1.067v1.067h1.067v-1.067zM25.067 21.589h-1.067v1.067h1.067v-1.067zM22.4 26.389h-1.067v1.067h1.067v-1.067zM22.4 28.522h-1.067v1.067h1.067v-1.067zM23.467 27.456h-1.067v1.067h1.067v-1.067zM21.333 27.456h-1.067v1.067h1.067v-1.067zM16 24.256h-1.067v1.067h1.067v-1.067zM16 26.389h-1.067v1.067h1.067v-1.067zM17.067 25.322h-1.067v1.067h1.067v-1.067zM14.933 25.322h-1.067v1.067h1.067v-1.067zM5.867 6.122h-1.067v1.067h1.067v-1.067zM5.867 8.255h-1.067v1.067h1.067v-1.067z"></path>
<path  d="M6.933 7.189h-1.067v1.067h1.067v-1.067zM4.8 7.189h-1.067v1.067h1.067v-1.067z"></path>
<path  d="M24.715 14.159c-0.287-0.388-0.709-0.637-1.188-0.705-0.481-0.068-0.956 0.058-1.34 0.352l-1.252 0.96-1.898 1.417-1.358-0.541c2.421-1.086 4.114-3.508 4.114-6.32 0-3.823-3.123-6.933-6.961-6.933s-6.961 3.11-6.961 6.933c0 1.386 0.414 2.674 1.12 3.758l-2.769-0.024c-0.009 0-0.015 0.004-0.023 0.005-0.056 0.003-0.109 0.014-0.159 0.032l0.004-0.001c-0.013 0.005-0.026 0.008-0.038 0.013-0.006 0.003-0.013 0.003-0.019 0.006l-3.233 1.596c-0.001 0-0.001 0-0.001 0.001l-1.893 0.911c-0.024 0.011-0.045 0.023-0.064 0.036l0.001-0.001c-0.755 0.502-1.012 1.489-0.598 2.295 0.22 0.429 0.595 0.745 1.056 0.889 0.161 0.052 0.347 0.083 0.539 0.083h0c0.29 0 0.577-0.071 0.839-0.211l1.388-0.738 2.264-1.169 1.357-0.008-5.442 5.416c-0.001 0.001-0.001 0.001-0.002 0.001l-1.339 1.333c-0.316 0.315-0.49 0.732-0.49 1.178s0.174 0.863 0.49 1.179c0.325 0.323 0.752 0.485 1.179 0.485s0.854-0.162 1.18-0.485l1.314-1.309 1.741-1.3 0.901 0.897-1.762 1.754c-0 0.001-0.001 0.001-0.002 0.001l-1.339 1.333c-0.316 0.315-0.49 0.732-0.49 1.178s0.174 0.863 0.49 1.179c0.325 0.323 0.753 0.485 1.18 0.485s0.855-0.162 1.18-0.485l3.482-3.467c0.001-0.001 0.001-0.001 0.001-0.002l1.010-1-0.004-0.004c0.006-0.006 0.015-0.009 0.022-0.015l5.166-5.658 3.471 0.494c0.022 0.003 0.048 0.005 0.073 0.005 0.001 0 0.001 0 0.002 0h-0c0.065 0 0.127-0.015 0.187-0.038 0.018-0.006 0.033-0.015 0.050-0.023 0.019-0.010 0.039-0.015 0.058-0.027l3.213-2.133c0.012-0.008 0.018-0.021 0.029-0.029 0.013-0.010 0.029-0.014 0.041-0.026l1.271-1.191c0.662-0.62 0.753-1.635 0.212-2.362zM2.13 17.77c-0.173 0.093-0.37 0.111-0.558 0.052-0.187-0.058-0.338-0.186-0.427-0.358-0.161-0.314-0.068-0.695 0.214-0.902l1.314-0.632 0.449 1.312-0.992 0.528zM5.628 15.942l-1.548 0.8-0.439-1.283 2.027-1.001-0.040 1.484zM20.727 9.322c0 0.918-0.219 1.785-0.599 2.559l-4.181-1.899c-0.044-0.573-0.341-1.075-0.788-1.388l1.464-4.86c2.378 0.756 4.105 2.974 4.105 5.588zM8.938 9.322c0-3.235 2.644-5.867 5.894-5.867 0.253 0 0.5 0.021 0.745 0.052l-1.432 4.754c-0.019-0.001-0.037-0.006-0.057-0.006-1.033 0-1.873 0.837-1.873 1.867s0.84 1.867 1.873 1.867c0.694 0 1.294-0.383 1.618-0.945l3.862 1.755c-1.075 1.446-2.795 2.39-4.737 2.39-3.25 0-5.894-2.632-5.894-5.867zM14.894 10.122c0 0.441-0.362 0.8-0.806 0.8s-0.806-0.359-0.806-0.8c0-0.441 0.362-0.8 0.806-0.8s0.806 0.359 0.806 0.8zM2.465 25.146c-0.236 0.234-0.619 0.234-0.854 0.001-0.114-0.114-0.176-0.263-0.176-0.423s0.062-0.309 0.176-0.421l0.962-0.958 0.851 0.848-0.959 0.955zM5.679 28.88c-0.236 0.234-0.619 0.235-0.855 0.001-0.114-0.114-0.176-0.263-0.176-0.423s0.062-0.309 0.176-0.421l0.963-0.959 0.852 0.848-0.96 0.955zM9.16 25.411c-0.001 0-0.001 0-0.002 0.001l-1.765 1.76-0.852-0.848 1.763-1.756c0.001-0.001 0.001-0.001 0.002-0.001 0.040-0.040 0.065-0.088 0.090-0.135 0.007-0.014 0.020-0.026 0.026-0.040 0.017-0.041 0.019-0.085 0.026-0.129 0.003-0.025 0.014-0.047 0.014-0.073 0-0.036-0.013-0.070-0.020-0.106-0.006-0.032-0.006-0.065-0.019-0.095-0.020-0.050-0.055-0.094-0.091-0.138-0.010-0.012-0.014-0.027-0.025-0.038h-0.001c-0.001-0-0.001-0.002-0.001-0.002l-1.607-1.6c-0.017-0.017-0.039-0.024-0.058-0.038-0.028-0.022-0.055-0.042-0.087-0.058-0.030-0.015-0.061-0.024-0.093-0.033-0.034-0.010-0.067-0.017-0.103-0.020-0.033-0.002-0.063 0.001-0.095 0.005-0.036 0.004-0.069 0.009-0.104 0.020-0.034 0.011-0.063 0.027-0.094 0.045-0.020 0.011-0.042 0.015-0.061 0.029l-1.773 1.324-0.901-0.897 2.399-2.386 4.361 4.289-0.928 0.919zM15.979 18.394c-0.015-0.002-0.030 0.004-0.045 0.003-0.008-0-0.017-0.001-0.026-0.001-0.031 0-0.062 0.003-0.092 0.008l0.003-0c-0.030 0.005-0.059 0.011-0.088 0.021-0.034 0.012-0.065 0.028-0.097 0.047s-0.059 0.039-0.084 0.062l0-0c-0.013 0.011-0.028 0.017-0.040 0.029l-4.698 5.146-4.328-4.257 2.833-2.818c0.209-0.208 0.21-0.546 0.002-0.755-0.105-0.105-0.243-0.157-0.381-0.156v-0.001l-2.219 0.013 0.028-1.607 3.104 0.027c1.265 1.294 3.029 2.101 4.981 2.101 0.437 0 0.864-0.045 1.279-0.123 0.040 0.032 0.079 0.065 0.13 0.085l2.41 0.96 0.331 1.644-3.003-0.427zM20.020 18.572l-0.313-1.558 1.446-1.080 0.947 1.257-2.080 1.381zM23.774 15.741l-0.838 0.785-0.931-1.236 0.831-0.637c0.155-0.119 0.351-0.168 0.543-0.143 0.193 0.027 0.364 0.128 0.48 0.284 0.217 0.292 0.18 0.699-0.085 0.947z"></path>
<path  d="M13.602 18.544l-2.143-2.133c-0.207-0.207-0.545-0.207-0.753 0l-2.142 2.133c-0.097 0.097-0.157 0.23-0.157 0.378v0c0 0.142 0.056 0.278 0.157 0.378l2.142 2.133c0.104 0.103 0.241 0.155 0.377 0.155s0.273-0.052 0.376-0.155l2.143-2.133c0.097-0.097 0.157-0.23 0.157-0.378v-0c0-0.142-0.057-0.278-0.157-0.378zM11.083 20.303l-1.387-1.381 1.387-1.381 1.387 1.381-1.387 1.381zM17.164 5.071l-0.258 1.036c0.071 0.018 1.738 0.452 1.738 2.149h1.067c-0-2.017-1.666-2.965-2.547-3.185zM19.711 9.322h-1.067v1.067h1.067v-1.067z"></path>
</symbol>
<symbol id="icon-clock" viewBox="0 0 32 32">
<path  d="M31.314 15.314c0-0.005 0-0.010 0-0.016 0-8.458-6.856-15.314-15.314-15.314s-15.314 6.856-15.314 15.314c0 6.859 4.51 12.665 10.726 14.615l0.108 0.029c0.137 0 0.229-0.046 0.366-0.137 0.137-0.046 0.229-0.183 0.274-0.366l3.84-12.206c1.058-0.003 1.915-0.861 1.915-1.92 0-1.060-0.86-1.92-1.92-1.92-0.297 0-0.578 0.067-0.829 0.188l0.012-0.005-5.12-5.12c-0.117-0.117-0.279-0.189-0.457-0.189-0.357 0-0.646 0.289-0.646 0.646 0 0.179 0.072 0.34 0.189 0.457l5.12 5.12c-0.114 0.235-0.18 0.511-0.18 0.802 0 0.602 0.284 1.137 0.725 1.48l0.004 0.003-3.657 11.703c-5.431-2.020-9.229-7.159-9.229-13.186 0-7.751 6.283-14.034 14.034-14.034s14.034 6.283 14.034 14.034c0 5.684-3.379 10.578-8.237 12.785l-0.088 0.036-0.366-1.874c-0.057-0.3-0.317-0.524-0.63-0.524-0.162 0-0.31 0.060-0.423 0.159l0.001-0.001-3.84 3.429c-0.137 0.118-0.223 0.292-0.223 0.485 0 0.286 0.188 0.529 0.447 0.61l0.005 0.001 4.891 1.6c0.058 0.019 0.125 0.030 0.195 0.030 0.353 0 0.64-0.287 0.64-0.64 0-0.043-0.004-0.085-0.012-0.126l0.001 0.004-0.366-1.829c5.527-2.379 9.326-7.778 9.326-14.065 0-0.005 0-0.011 0-0.016v0.001zM16 14.629c0.353 0 0.64 0.287 0.64 0.64s-0.287 0.64-0.64 0.64v0c-0.353 0-0.64-0.287-0.64-0.64s0.287-0.64 0.64-0.64v0zM18.103 29.486l2.194-1.966 0.594 2.834-2.789-0.914z"></path>
<path  d="M15.36 3.2v1.28c0 0.353 0.287 0.64 0.64 0.64s0.64-0.287 0.64-0.64v-1.28c0-0.353-0.287-0.64-0.64-0.64s-0.64 0.287-0.64 0.64v0zM3.886 14.629c-0.366 0-0.663 0.297-0.663 0.663s0.297 0.663 0.663 0.663h1.28c0.353 0 0.64-0.287 0.64-0.64s-0.287-0.64-0.64-0.64h-1.28zM28.114 15.954c0.353 0 0.64-0.287 0.64-0.64s-0.287-0.64-0.64-0.64h-1.28c-0.353 0-0.64 0.287-0.64 0.64s0.287 0.64 0.64 0.64h1.28z"></path>
</symbol>
<symbol id="icon-diagram" viewBox="0 0 32 32">
<path  d="M14.903 14.949h1.097v4.8h-1.097v-4.8zM19.2 17.097h1.051v2.651h-1.051v-2.651zM10.651 18.697h1.097v1.051h-1.097v-1.006zM7.451 18.149h1.097v1.6h-1.097v-1.6z"></path>
<path  d="M1.6 28.297h25.6c0.869 0 1.6-0.731 1.6-1.6v-2.149c0-0.914-0.731-1.6-1.6-1.6h-0.549v-13.257l3.017-2.88c0.213 0.112 0.465 0.178 0.733 0.178 0.884 0 1.6-0.716 1.6-1.6s-0.716-1.6-1.6-1.6c-0.884 0-1.6 0.716-1.6 1.6 0 0.234 0.050 0.455 0.14 0.655l-0.004-0.010-2.286 2.149v-1.234c0-0.869-0.731-1.6-1.6-1.6h-21.303c-0.914 0-1.6 0.731-1.6 1.6v16h-0.549c-0.914 0-1.6 0.731-1.6 1.6v2.149c0 0.914 0.731 1.6 1.6 1.6zM30.4 4.846c0.047-0.014 0.101-0.023 0.157-0.023 0.303 0 0.549 0.246 0.549 0.549s-0.246 0.549-0.549 0.549c-0.056 0-0.11-0.008-0.161-0.024l0.004 0.001c-0.229-0.070-0.392-0.279-0.392-0.526s0.163-0.456 0.388-0.525l0.004-0.001zM3.2 6.949c0-0.274 0.229-0.503 0.549-0.503h21.303c0.274 0 0.549 0.229 0.549 0.503v2.286l-1.097 1.006v-2.194c0-0.32-0.229-0.549-0.503-0.549h-19.2c-0.274 0-0.549 0.229-0.549 0.549v13.303c0 0.32 0.274 0.549 0.549 0.549h19.2c0.274 0 0.503-0.229 0.503-0.549v-9.646l1.097-1.006v12.251h-22.4v-16zM8 13.897c-0.007-0-0.015-0-0.022-0-0.884 0-1.6 0.716-1.6 1.6s0.716 1.6 1.6 1.6c0.436 0 0.831-0.174 1.12-0.457l-0 0 1.829 0.914c0.229 0.137 0.503 0.091 0.686-0.091l3.931-4.434 3.84 2.88c0.229 0.183 0.503 0.137 0.686 0l3.383-3.2v8.137h-18.103v-12.297h18.103v2.697l-3.749 3.566-3.931-2.926c-0.229-0.183-0.549-0.137-0.731 0.046l-3.977 4.526-1.463-0.777v-0.137c0-0.914-0.686-1.6-1.554-1.6zM8.549 15.497c0 0.303-0.246 0.549-0.549 0.549s-0.549-0.246-0.549-0.549v0c0-0.303 0.246-0.549 0.549-0.549s0.549 0.246 0.549 0.549v0zM11.749 24.046h5.303v0.503c0 0.32-0.229 0.549-0.549 0.549h-4.251c-0.274 0-0.503-0.229-0.503-0.549v-0.503zM1.051 24.549c0-0.274 0.274-0.503 0.549-0.503h9.051v0.503c0 0.914 0.731 1.6 1.6 1.6h4.251c0.914 0 1.6-0.686 1.6-1.6v-0.503h9.097c0.274 0 0.503 0.229 0.503 0.503v2.149c0 0.274-0.229 0.549-0.503 0.549h-25.6c-0.274 0-0.549-0.274-0.549-0.549v-2.149z"></path>
</symbol>
<symbol id="icon-envelope" viewBox="0 0 43 32">
<path  d="M38.667 0h-34.667c-2.133 0-4 1.867-4 4v24c0 2.133 1.867 4 4 4h34.667c2.133 0 4-1.867 4-4v-24c0-2.133-1.867-4-4-4zM38.667 2.667h0.533l-17.867 15.467-17.867-15.467h35.2zM38.667 29.333h-34.667c-0.736 0-1.333-0.597-1.333-1.333v0-22.4l17.867 15.467c0.22 0.166 0.498 0.267 0.8 0.267s0.58-0.1 0.803-0.269l-0.003 0.002 17.867-15.733v22.4c0 0.8-0.533 1.333-1.333 1.333z"></path>
</symbol>
<symbol id="icon-facebook" viewBox="0 0 32 32">
<path  d="M21.28 5.28h3.040v-5.12l-4.32-0.16c-4.16 0-7.040 2.72-7.040 7.52v4.48h-4.96v5.76h4.8v14.24h5.6v-14.4h4.48l0.8-5.6h-5.28v-3.84c0-1.6 0.48-2.88 2.72-2.88z"></path>
</symbol>
<symbol id="icon-instagram" viewBox="0 0 32 32">
<path  d="M31.969 9.408c-0.075-1.7-0.35-2.869-0.744-3.882-0.406-1.075-1.032-2.038-1.851-2.838-0.78-0.792-1.724-1.419-2.778-1.826l-0.054-0.018c-1.019-0.394-2.182-0.669-3.882-0.744-1.713-0.081-2.257-0.1-6.601-0.1s-4.888 0.019-6.595 0.094c-1.7 0.075-2.869 0.35-3.882 0.744-1.075 0.406-2.038 1.031-2.838 1.85-0.792 0.78-1.419 1.724-1.826 2.778l-0.018 0.054c-0.394 1.019-0.669 2.181-0.744 3.882-0.081 1.713-0.1 2.257-0.1 6.602s0.019 4.888 0.094 6.595c0.075 1.7 0.35 2.869 0.744 3.882 0.427 1.11 1.056 2.057 1.849 2.837l0.001 0.001c0.78 0.792 1.724 1.419 2.778 1.826l0.054 0.018c1.019 0.394 2.182 0.669 3.882 0.744 1.706 0.075 2.25 0.094 6.595 0.094s4.888-0.019 6.595-0.094c1.7-0.075 2.869-0.35 3.882-0.744 2.157-0.85 3.832-2.525 4.663-4.627l0.019-0.055c0.394-1.019 0.669-2.182 0.744-3.882 0.075-1.707 0.094-2.251 0.094-6.595s-0.006-4.888-0.081-6.595zM29.087 22.473c-0.069 1.563-0.331 2.407-0.55 2.969-0.551 1.4-1.639 2.487-3.002 3.026l-0.036 0.013c-0.563 0.219-1.413 0.481-2.969 0.55-1.688 0.075-2.194 0.094-6.464 0.094s-4.782-0.019-6.464-0.094c-1.563-0.069-2.407-0.331-2.969-0.55-0.694-0.256-1.325-0.663-1.838-1.194-0.517-0.504-0.923-1.117-1.183-1.804l-0.011-0.034c-0.219-0.563-0.481-1.413-0.55-2.969-0.075-1.688-0.094-2.194-0.094-6.464s0.019-4.782 0.094-6.464c0.069-1.563 0.331-2.407 0.55-2.969 0.256-0.694 0.663-1.325 1.2-1.838 0.504-0.517 1.117-0.923 1.804-1.183l0.034-0.011c0.563-0.219 1.413-0.481 2.969-0.55 1.688-0.075 2.194-0.094 6.464-0.094 4.276 0 4.782 0.019 6.464 0.094 1.563 0.069 2.407 0.331 2.969 0.55 0.694 0.256 1.325 0.662 1.838 1.194 0.531 0.519 0.938 1.144 1.194 1.838 0.219 0.563 0.481 1.413 0.55 2.969 0.075 1.688 0.094 2.194 0.094 6.464s-0.019 4.77-0.094 6.458z"></path>
<path  d="M16.059 7.783c-4.538 0-8.22 3.682-8.22 8.22s3.682 8.22 8.22 8.22c4.539 0 8.22-3.682 8.22-8.22s-3.682-8.22-8.22-8.22zM16.059 21.335c-2.944 0-5.332-2.388-5.332-5.332s2.388-5.332 5.332-5.332c2.944 0 5.332 2.388 5.332 5.332s-2.388 5.332-5.332 5.332zM26.524 7.458c0 1.060-0.859 1.919-1.919 1.919s-1.919-0.859-1.919-1.919c0-1.060 0.859-1.919 1.919-1.919s1.919 0.859 1.919 1.919z"></path>
</symbol>
<symbol id="icon-linkedin" viewBox="0 0 32 32">
<path  d="M32 32v-11.744c0-5.728-1.232-10.16-7.952-10.16-0.076-0.003-0.166-0.005-0.256-0.005-2.555 0-4.788 1.376-5.999 3.428l-0.018 0.032h-0.096v-2.912h-6.368v21.36h6.64v-10.576c0-2.784 0.528-5.488 3.968-5.488 3.408 0 3.456 3.184 3.456 5.664v10.4h6.624zM0.528 10.64h6.64v21.36h-6.64v-21.36zM3.84 0c-2.121 0-3.84 1.719-3.84 3.84v0c-0 0.005-0 0.010-0 0.016 0 2.127 1.715 3.854 3.838 3.872h0.002c2.128 0 3.84-1.76 3.84-3.888 0-2.121-1.719-3.84-3.84-3.84v0z"></path>
</symbol>
<symbol id="icon-Logo1" viewBox="0 0 57 32">
<path  d="M20.267 3.733l3.733 3.52h-6.933v17.173h18.133v-6.56l3.733 3.52v-17.653h-18.667zM35.040 17.44l-10.613-9.973h10.613v10.027zM31.733 21.92h-11.787v-11.52h0.8v10.72h10.987v0.8zM22.72 26.72l-0.427 0.907-0.427-0.96h-0.373l0.64 1.173v0.747h0.32v-0.747l0.64-1.173h-0.373zM23.253 28.64l0.16-0.48h0.747l0.16 0.48h0.32l-0.64-1.973h-0.32l-0.747 1.973h0.32zM23.787 27.147l0.267 0.747h-0.533l0.267-0.747zM25.547 27.84l-0.107 0.267c0 0.16 0.053 0.267 0.213 0.373 0.107 0.107 0.213 0.16 0.427 0.16 0.16 0 0.32 0 0.48-0.16l0.107 0.16h0.373l-0.267-0.373c0.107-0.107 0.16-0.32 0.16-0.533h-0.267c0 0.107 0 0.213-0.107 0.32l-0.373-0.427 0.16-0.107 0.16-0.16c0.044-0.066 0.070-0.147 0.070-0.234 0-0.117-0.047-0.223-0.123-0.3l0 0c-0.082-0.067-0.187-0.107-0.302-0.107-0.006 0-0.013 0-0.019 0l0.001-0c-0.015-0.002-0.033-0.002-0.050-0.002-0.122 0-0.235 0.041-0.324 0.11l0.001-0.001c-0.107 0.107-0.16 0.213-0.16 0.373l0.053 0.16 0.16 0.267c-0.103 0.059-0.191 0.13-0.266 0.212l-0.001 0.001zM26.4 28.267c-0.088 0.067-0.199 0.107-0.32 0.107v0l-0.213-0.053c-0.065-0.049-0.107-0.126-0.107-0.213v0c0-0.107 0.053-0.213 0.16-0.267h0.053l0.427 0.427zM26.027 27.467l-0.107-0.32v-0.16h0.373l0.053 0.16-0.053 0.16-0.213 0.16zM29.12 28.48c0.16-0.107 0.213-0.267 0.213-0.48h-0.32c0 0.16 0 0.213-0.107 0.267-0.053 0.107-0.16 0.107-0.32 0.107-0.004 0-0.009 0-0.013 0-0.126 0-0.238-0.063-0.306-0.159l-0.001-0.001-0.107-0.48v-0.16c0-0.213 0.053-0.373 0.16-0.48 0.053-0.107 0.16-0.107 0.32-0.107l0.267 0.053 0.107 0.32h0.32c0-0.213-0.053-0.373-0.213-0.533l-0.533-0.107c-0.107 0-0.267 0-0.373 0.107l-0.267 0.267c-0.069 0.137-0.109 0.298-0.109 0.469 0 0.023 0.001 0.045 0.002 0.067l-0-0.003v0.16c0 0.16 0 0.32 0.107 0.427 0.053 0.16 0.16 0.267 0.267 0.32l0.373 0.107c0.267 0 0.427-0.053 0.533-0.16zM31.093 28.213l0.053-0.533v-0.053c0-0.213 0-0.373-0.107-0.533-0.13-0.223-0.368-0.371-0.64-0.373h-0c-0.16 0-0.32 0-0.427 0.107-0.107 0.053-0.213 0.16-0.267 0.32-0.107 0.107-0.107 0.267-0.107 0.48v0.107c0 0.16 0 0.32 0.107 0.48 0 0.16 0.16 0.267 0.267 0.32l0.427 0.107c0.16 0 0.267 0 0.373-0.107 0.16-0.053 0.213-0.213 0.32-0.32zM30.72 27.147l0.107 0.48v0.107c0 0.213 0 0.373-0.107 0.48l-0.32 0.16c-0.019 0.003-0.041 0.005-0.063 0.005-0.129 0-0.242-0.065-0.309-0.164l-0.001-0.001-0.107-0.533v-0.053c0-0.213 0-0.373 0.107-0.533l0.373-0.107c0.107 0 0.213 0 0.32 0.16z"></path>
</symbol>
<symbol id="icon-Logo2" viewBox="0 0 57 32">
<path  d="M26.72 3.2h-0.587c-0.103-0.003-0.225-0.005-0.347-0.005s-0.243 0.002-0.364 0.005l0.018-0c-1.973 0-3.893 0.533-5.653 1.333l-0.267 0.107v11.893l0.533-0.213c1.743-0.592 3.752-0.959 5.84-1.013l0.027-0.001v1.6h-0.587c-2.696 0.137-5.192 0.871-7.397 2.072l0.091-0.045v-15.147c2.29-1.369 5.049-2.181 7.998-2.187h0.268c1.008 0.045 1.959 0.179 2.879 0.394l-0.105-0.021v1.493c-0.64-0.16-1.28-0.213-1.92-0.267h-0.48zM29.387 4.747h1.067c2.956-0.008 5.73-0.778 8.138-2.124l-0.085 0.044v14.933c-2.273 1.328-5.003 2.113-7.918 2.113-1.086 0-2.146-0.109-3.171-0.316l0.102 0.017v-14.933c0.556 0.129 1.214 0.224 1.886 0.265l0.034 0.002zM36.96 4.853l-0.533 0.16-1.493 0.48c-1.346 0.355-2.892 0.558-4.485 0.558-0.336 0-0.67-0.009-1.001-0.027l0.046 0.002h-0.427v12.107h0.32l1.067 0.107c2.313-0.004 4.496-0.556 6.429-1.531l-0.082 0.038 0.213-0.107v-11.787z"></path>
<path  d="M19.040 24.107c-0.14-0.13-0.327-0.21-0.533-0.213h-0.374c-0.314 0.113-0.535 0.408-0.535 0.755 0 0.016 0 0.032 0.001 0.047l-0-0.002v2.027c0 0.16 0 0.32 0.107 0.427 0 0.107 0.107 0.213 0.16 0.267l0.32 0.16h0.587c0.315-0.13 0.533-0.435 0.533-0.791 0-0.003-0-0.006-0-0.009v0-0.213h-0.533v0.32l-0.213 0.213h-0.107c-0.015 0.003-0.032 0.005-0.050 0.005-0.089 0-0.168-0.044-0.216-0.111l-0.001-0.001-0.053-0.32v-1.92l0.053-0.267c0.042-0.095 0.136-0.161 0.245-0.161 0.008 0 0.015 0 0.023 0.001l-0.001-0c0.096 0.012 0.176 0.074 0.213 0.158l0.001 0.002c0.107 0.053 0.107 0.16 0.107 0.267v0.16h0.533v-0.213c-0.006-0.249-0.107-0.474-0.267-0.64l0 0zM22.187 24.107c-0.163-0.131-0.372-0.21-0.6-0.21-0.11 0-0.215 0.018-0.314 0.052l0.007-0.002c-0.107 0-0.213 0.053-0.267 0.16l-0.213 0.267-0.053 0.373v1.973l0.053 0.373c0 0.107 0.107 0.213 0.213 0.267 0.053 0.107 0.16 0.16 0.267 0.16 0.095 0.037 0.205 0.058 0.32 0.058s0.225-0.021 0.326-0.060l-0.006 0.002c0.107 0 0.213-0.053 0.267-0.16 0.165-0.156 0.267-0.376 0.267-0.62 0-0.007-0-0.014-0-0.021l0 0.001v-1.973l-0.053-0.373c0-0.107-0.107-0.213-0.213-0.267zM21.973 26.72c0 0.002 0 0.003 0 0.005 0 0.102-0.041 0.194-0.107 0.261l0-0c-0.068 0.069-0.162 0.112-0.267 0.112s-0.199-0.043-0.267-0.112l-0-0c-0.066-0.067-0.107-0.16-0.107-0.261 0-0.002 0-0.004 0-0.006v0-1.973c-0-0.002-0-0.003-0-0.005 0-0.102 0.041-0.194 0.107-0.261l-0 0c0.068-0.069 0.162-0.112 0.267-0.112s0.199 0.043 0.267 0.112l0 0c0.066 0.067 0.107 0.16 0.107 0.261 0 0.002 0 0.004-0 0.006v-0 1.973zM26.347 27.573v-3.68h-0.533l-0.64 1.973-0.693-1.973h-0.533v3.68h0.533v-2.24l0.533 1.6h0.267l0.533-1.6v2.24h0.533zM29.333 24.16l-0.32-0.213h-1.173v3.627h0.533v-1.44h0.267c0.16 0 0.32 0 0.48-0.107l0.267-0.267 0.16-0.32c0.028-0.144 0.044-0.31 0.044-0.48s-0.016-0.336-0.047-0.496l0.003 0.016-0.213-0.32zM29.067 25.227l-0.053 0.267-0.16 0.107c-0.040 0.011-0.086 0.017-0.133 0.017s-0.093-0.006-0.137-0.018l0.004 0.001h-0.213v-1.227h0.267l0.213 0.053 0.16 0.16v0.693zM31.787 23.893h-0.427l-0.8 3.68h0.533l0.16-0.8h0.693l0.16 0.8h0.533l-0.853-3.68zM31.307 26.293l0.267-1.333 0.267 1.333h-0.533zM35.2 26.133l-0.853-2.24h-0.48v3.68h0.533v-2.187l0.8 2.187h0.533v-3.68h-0.533v2.24zM38.4 23.893l-0.427 1.44-0.48-1.44h-0.533l0.747 2.133v1.547h0.533v-1.6l0.693-2.080h-0.533zM17.6 28.587h0.267v0.747h0.16v-0.747h0.267v-0.107h-0.693v0.107zM19.733 28.48l-0.32 0.853h0.16l0.053-0.213h0.373l0.053 0.213h0.213l-0.373-0.853h-0.16zM19.733 29.013l0.053-0.373 0.16 0.32h-0.267zM21.867 29.013h0.16v0.107l-0.213 0.053c-0.005 0-0.012 0.001-0.018 0.001-0.055 0-0.104-0.021-0.142-0.054l0 0-0.107-0.213c0-0.213 0.107-0.32 0.267-0.32 0.016-0.006 0.034-0.009 0.054-0.009 0.088 0 0.16 0.072 0.16 0.16 0 0.003-0 0.006-0 0.010l0-0h0.16c0-0.213-0.16-0.32-0.373-0.32l-0.32 0.107c-0.071 0.076-0.115 0.178-0.115 0.291 0 0.029 0.003 0.058 0.008 0.085l-0-0.003c0 0.107 0 0.213 0.107 0.32 0.075 0.067 0.175 0.108 0.284 0.108 0.013 0 0.025-0.001 0.038-0.002l-0.002 0c0.16 0 0.267 0 0.373-0.16v-0.32h-0.373v0.16zM24 28.48h-0.213v0.853h0.587v-0.16h-0.373v-0.693zM25.76 28.48h-0.16v0.853h0.16v-0.853zM27.52 29.013l-0.32-0.533h-0.16v0.853h0.16v-0.533l0.32 0.533h0.16v-0.853h-0.16v0.533zM29.12 28.96h0.427v-0.16h-0.427v-0.213h0.48v-0.107h-0.64v0.853h0.64v-0.16h-0.48v-0.213zM33.067 28.8h-0.373v-0.32h-0.16v0.853h0.16v-0.373h0.32v0.373h0.16v-0.853h-0.107v0.32zM34.667 28.96h0.373v-0.16h-0.373v-0.213h0.48v-0.107h-0.64v0.853h0.64v-0.16h-0.48v-0.213zM36.8 28.96c0.16 0 0.213-0.107 0.213-0.267 0.001-0.005 0.001-0.012 0.001-0.018 0-0.055-0.021-0.104-0.054-0.142l0 0c-0.065-0.035-0.142-0.055-0.224-0.055-0.015 0-0.030 0.001-0.045 0.002l0.002-0h-0.373v0.853h0.213v-0.373h0.107l0.053 0.107 0.213 0.267h0.213l-0.107-0.16-0.213-0.213zM36.64 28.8h-0.107v-0.213h0.267c0.059 0 0.107 0.048 0.107 0.107s-0.048 0.107-0.107 0.107v0c-0.024 0.004-0.052 0.006-0.080 0.006s-0.056-0.002-0.083-0.006l0.003 0zM38.453 28.96h0.427v-0.16h-0.427v-0.213h0.48v-0.107h-0.64v0.853h0.64v-0.16h-0.48v-0.213z"></path>
</symbol>
<symbol id="icon-Logo3" viewBox="0 0 57 32">
<path  d="M19.413 26.187l0.16 0.107-0.32 0.213-0.48 0.107c-0.16 0-0.267 0-0.427-0.107l-0.32-0.16-0.213-0.32c-0.049-0.118-0.078-0.256-0.078-0.4s0.029-0.282 0.080-0.407l-0.003 0.007 0.213-0.32c0.107-0.053 0.213-0.16 0.373-0.16 0.127-0.043 0.274-0.067 0.427-0.067s0.299 0.025 0.436 0.070l-0.010-0.003 0.32 0.16-0.107 0.107h-0.16l-0.053-0.053c-0.115-0.067-0.253-0.107-0.4-0.107-0.009 0-0.019 0-0.028 0l0.001-0-0.32 0.053-0.267 0.16c0 0.107-0.107 0.16-0.16 0.267v0.64l0.16 0.213 0.267 0.16h0.48c0.144-0.016 0.272-0.074 0.374-0.161l-0.001 0.001h0.053zM22.773 25.6l-0.053 0.427-0.267 0.32-0.32 0.16c-0.267 0.107-0.587 0.107-0.907 0-0.122-0.038-0.229-0.092-0.323-0.162l0.003 0.002-0.213-0.32c-0.049-0.118-0.078-0.256-0.078-0.4s0.029-0.282 0.080-0.407l-0.003 0.007c0-0.107 0.107-0.213 0.213-0.32l0.32-0.16c0.32-0.107 0.64-0.107 0.907 0l0.32 0.16c0.197 0.167 0.322 0.416 0.322 0.693 0 0.019-0.001 0.038-0.002 0.057l0-0.003zM22.453 25.6v-0.267c-0.064-0.205-0.222-0.363-0.422-0.425l-0.005-0.001c-0.096-0.031-0.206-0.049-0.32-0.049s-0.224 0.018-0.328 0.051l0.008-0.002-0.267 0.16-0.16 0.267v0.587c0.064 0.205 0.222 0.363 0.422 0.425l0.005 0.001h0.64l0.213-0.16c0.107-0.053 0.16-0.16 0.16-0.267l0.053-0.267zM25.067 25.973v0.053l0.053-0.053v-0.107l0.8-1.173h0.373v1.867h-0.267v-1.493l-0.747 1.173-0.107 0.053h-0.107l-0.907-1.227v1.547h-0.267v-1.867h0.32l0.747 1.173 0.053 0.107zM27.84 25.867v0.693h-0.267v-1.867h1.013c0.107 0 0.16 0.107 0.267 0.16l0.107 0.16 0.053 0.267v0.213l-0.213 0.213-0.213 0.107-0.373 0.053h-0.373zM27.84 25.653h0.587l0.16-0.107 0.107-0.107v-0.373c0-0.053 0-0.107-0.107-0.16l-0.373-0.107h-0.373v0.8zM31.787 26.56h-0.32l-0.213-0.533h-1.013l-0.213 0.533h-0.32l0.853-1.867h0.32l0.907 1.867zM30.347 25.867h0.8l-0.32-0.747-0.107-0.213v0.213l-0.373 0.747zM33.067 24.693l1.28 1.44v-1.44h0.267v1.867h-0.213l-1.333-1.493v1.44h-0.267v-1.867h0.213zM36.747 25.813v0.747h-0.267v-0.747l-0.853-1.12h0.373l0.533 0.8c0.019 0.044 0.037 0.097 0.052 0.152l0.002 0.008 0.053-0.107 0.053-0.053 0.533-0.747v-0.053h0.32l-0.747 1.12zM24.907 21.493h0.427c1.934-0.748 3.542-1.978 4.727-3.546l0.019-0.027c1.173-1.6 1.76-3.413 1.707-5.333l-2.133-1.813c0.131 0.595 0.206 1.278 0.206 1.979 0 1.428-0.312 2.783-0.871 4.001l0.025-0.060c-0.908 1.992-2.315 3.621-4.065 4.774l-0.042 0.026z"></path>
<path  d="M24.16 21.333v0.053c2.027-1.227 3.52-2.933 4.373-4.907s0.96-4.16 0.373-6.187l-3.040-2.667c0.962 1.642 1.53 3.616 1.53 5.722 0 3.105-1.234 5.922-3.239 7.987l0.003-0.003zM34.613 14.827c-0.585 2.2-1.871 4.040-3.6 5.315l-0.026 0.019-1.76 1.067c1.558-0.405 2.916-1.105 4.073-2.042l-0.020 0.016c1.067-0.907 2.027-2.027 2.56-3.253l-1.227-1.067z"></path>
<path  d="M34.133 14.56l-1.813-1.6c0 1.813-0.587 3.52-1.653 5.013s-2.56 2.72-4.373 3.573l1.227-0.053c1.653-0.587 3.147-1.6 4.267-2.773 1.087-1.123 1.888-2.529 2.28-4.098l0.013-0.062zM24.427 6.507l-2.133-1.867c-1.896 0.618-3.489 1.729-4.679 3.182l-0.014 0.018c-1.087 1.346-1.749 3.075-1.76 4.957v0.003c0 1.973 0.747 3.84 2.133 5.333 1.387 1.6 3.36 2.667 5.493 3.2 1.996-2.037 3.228-4.83 3.228-7.91 0-2.593-0.873-4.982-2.341-6.89l0.020 0.027zM38.987 14.24c0-2.293-1.067-4.533-2.933-6.133-1.898-1.63-4.386-2.623-7.105-2.623-1.276 0-2.5 0.218-3.638 0.62l0.077-0.024 12.96 11.307c0.427-1.013 0.64-2.080 0.64-3.147z"></path>
</symbol>
<symbol id="icon-Logo4" viewBox="0 0 57 32">
<path  d="M12.853 11.253c-1.28 0-2.293 0.907-2.293 2.080 0 1.12 1.067 2.027 2.293 2.027 1.28 0 2.347-0.907 2.347-2.027 0-1.173-1.067-2.080-2.347-2.080zM29.973 10.613c0-1.6-0.693-3.093-1.973-4.267-1.227-1.067-2.933-1.707-4.747-1.707-1.76 0-3.467 0.64-4.747 1.76-1.227 1.067-1.92 2.667-1.92 4.213v8.693s13.333-1.333 13.333-8.693zM5.867 22.133c0 1.12 0.533 2.133 1.387 2.933 0.867 0.755 2.005 1.218 3.252 1.227h0.002c1.28 0 2.453-0.427 3.307-1.227 0.821-0.702 1.349-1.726 1.386-2.874l0-0.006v-6.080s-9.333 0.907-9.333 6.027zM10.507 23.2c-0.213 0-0.48 0-0.64-0.16-0.213-0.107-0.373-0.267-0.48-0.48-0.053-0.16-0.107-0.427-0.053-0.587 0-0.213 0.16-0.427 0.32-0.533 0.16-0.213 0.427-0.32 0.64-0.32h0.693c0.213 0.107 0.427 0.267 0.533 0.427 0.14 0.172 0.225 0.395 0.225 0.637 0 0.297-0.128 0.564-0.331 0.749l-0.001 0.001-0.427 0.213-0.48 0.107zM19.947 22.667h-0.907v0.907h-0.373v-2.24h1.44v0.427h-1.013v0.533h0.907v0.427zM22.187 22.507c0 0.213 0 0.427-0.107 0.533-0.146 0.317-0.461 0.534-0.826 0.534-0.009 0-0.019-0-0.028-0l0.001 0c-0.16 0-0.32 0-0.533-0.107l-0.32-0.373-0.107-0.587v-0.107c0-0.213 0-0.427 0.107-0.587 0.146-0.317 0.461-0.534 0.826-0.534 0.009 0 0.019 0 0.028 0l-0.001-0c0.213 0 0.373 0 0.533 0.107 0.107 0.107 0.267 0.267 0.32 0.427 0.107 0.16 0.107 0.373 0.107 0.533v0.16zM21.76 22.4c0-0.267-0.053-0.427-0.16-0.533-0.075-0.128-0.212-0.213-0.369-0.213-0.001 0-0.003 0-0.004 0h0c-0.16 0-0.267 0.053-0.373 0.213l-0.107 0.533v0.107c0 0.213 0 0.373 0.107 0.533 0.107 0.107 0.213 0.16 0.373 0.16s0.32 0 0.373-0.16c0.107-0.107 0.107-0.32 0.16-0.533v-0.107zM23.733 22.933s0-0.107-0.107-0.16l-0.32-0.16c-0.16 0-0.32-0.107-0.373-0.16-0.267-0.107-0.427-0.32-0.427-0.533l0.107-0.32c0.107-0.107 0.16-0.213 0.32-0.267l0.427-0.053 0.427 0.053 0.32 0.267 0.107 0.373h-0.48c0-0.107 0-0.16-0.107-0.267-0.061-0.036-0.134-0.057-0.213-0.057-0.019 0-0.038 0.001-0.056 0.004l0.002-0-0.267 0.053-0.107 0.213c0 0.053 0 0.107 0.107 0.16l0.32 0.16c0.267 0.053 0.48 0.16 0.587 0.267 0.16 0.16 0.213 0.267 0.213 0.48s-0.107 0.32-0.213 0.48c-0.16 0.107-0.373 0.16-0.64 0.16-0.16 0-0.32 0-0.48-0.107l-0.32-0.267-0.107-0.373h0.48c0 0.213 0.16 0.373 0.427 0.373 0.107 0 0.213 0 0.267-0.107l0.107-0.16zM26.24 21.707h-0.693v1.867h-0.48v-1.867h-0.693v-0.427h1.867v0.427zM27.84 22.613h-0.853v0.587h1.067v0.373h-1.6v-2.24h1.6v0.427h-1.067v0.533h0.907v0.373zM29.12 22.72h-0.32v0.853h-0.427v-2.24h0.8c0.32 0 0.533 0.107 0.64 0.213 0.16 0.107 0.213 0.267 0.213 0.533 0 0.107 0 0.267-0.107 0.373 0 0.107-0.16 0.16-0.267 0.213l0.48 0.96h-0.533l-0.427-0.853zM28.8 22.4h0.427l0.267-0.053 0.053-0.267-0.053-0.267-0.32-0.053h-0.373v0.64zM31.68 22.827v0.8h-0.533v-2.293h0.96l0.427 0.107 0.32 0.267 0.107 0.427c0 0.213-0.107 0.373-0.267 0.533-0.16 0.107-0.373 0.16-0.64 0.16h-0.373zM31.68 22.453h0.427c0.107 0 0.213 0 0.267-0.107l0.107-0.213c0-0.107 0-0.213-0.107-0.267-0.067-0.066-0.16-0.107-0.261-0.107-0.002 0-0.004 0-0.006 0h-0.426v0.64zM34.613 22.667h-0.907v0.587h1.067v0.373h-1.493v-2.293h1.387v0.427h-1.067v0.533h0.907v0.373zM36.8 21.76h-0.693v1.867h-0.48v-1.867h-0.693v-0.427h1.867v0.427zM38.4 22.667h-0.853v0.587h1.067v0.373h-1.547v-2.293h1.547v0.427h-1.067v0.533h0.853v0.373zM39.733 22.773h-0.373v0.853h-0.533v-2.293h0.907c0.267 0 0.48 0.107 0.587 0.213 0.16 0.107 0.213 0.267 0.213 0.533l-0.053 0.373-0.32 0.213 0.533 0.96h-0.533l-0.427-0.853zM39.36 22.4h0.373l0.267-0.053 0.107-0.267c0-0.107 0-0.213-0.107-0.267l-0.267-0.053h-0.373v0.64zM42.080 23.040l-0.053-0.213-0.373-0.16c-0.16 0-0.267-0.107-0.373-0.16-0.267-0.107-0.373-0.32-0.373-0.533 0-0.16 0-0.267 0.107-0.32 0-0.107 0.16-0.213 0.267-0.267l0.427-0.053 0.48 0.053 0.267 0.267 0.107 0.373h-0.48c0-0.107 0-0.16-0.107-0.267-0.061-0.036-0.134-0.057-0.213-0.057-0.019 0-0.038 0.001-0.056 0.004l0.002-0-0.267 0.053-0.107 0.213 0.16 0.16 0.32 0.16c0.267 0.053 0.427 0.16 0.533 0.267 0.16 0.16 0.213 0.267 0.213 0.48s-0.053 0.32-0.213 0.48c-0.16 0.107-0.373 0.16-0.587 0.16s-0.373 0-0.533-0.107l-0.32-0.267-0.107-0.373h0.533c0 0.213 0.107 0.373 0.427 0.373 0.107 0 0.16 0 0.267-0.107l0.053-0.16z"></path>
</symbol>
<symbol id="icon-Logo5" viewBox="0 0 57 32">
<path  d="M14.293 23.84c0.107 0.16 0.16 0.373 0.16 0.533l-0.053 0.373-0.213 0.267c-0.267 0.213-0.587 0.267-0.907 0.267h-1.547v-3.307h1.493c0.32 0 0.64 0.053 0.853 0.213l0.213 0.267 0.107 0.373c0 0.16-0.053 0.373-0.213 0.533l-0.427 0.213c0.213 0 0.373 0.16 0.533 0.267zM12.48 23.36h0.64c0.107 0 0.267 0 0.373-0.107l0.107-0.16 0.053-0.16v-0.16l-0.16-0.16c-0.107-0.107-0.267-0.107-0.427-0.107h-0.587v0.853zM13.547 24.64l0.16-0.16v-0.373l-0.107-0.16c-0.16-0.107-0.32-0.107-0.48-0.107h-0.64v0.907h0.64c0.16 0 0.32 0 0.48-0.107zM17.387 25.28l-0.853-1.28h-0.32v1.28h-0.747v-3.307h1.387c0.373 0 0.693 0.107 0.96 0.267 0.213 0.213 0.32 0.427 0.32 0.693s-0.053 0.533-0.213 0.693c-0.16 0.16-0.427 0.267-0.64 0.32l0.907 1.333h-0.8zM16.213 23.52h0.587c0.427 0 0.64-0.16 0.64-0.48l-0.053-0.213c-0.027-0.062-0.063-0.115-0.107-0.16l0 0-0.48-0.16h-0.587v1.067zM21.333 24.64h-1.44l-0.267 0.64h-0.747l1.333-3.253h0.8l1.333 3.253h-0.747l-0.267-0.64zM21.12 24.107l-0.533-1.387-0.533 1.387h1.067zM26.293 25.28h-0.693l-1.6-2.24v2.24h-0.747v-3.307h0.693l1.6 2.24v-2.24h0.747v3.307zM30.4 24.533c-0.107 0.213-0.373 0.427-0.64 0.533-0.32 0.16-0.64 0.213-1.013 0.213h-1.28v-3.307h1.333c0.373 0 0.693 0.053 1.067 0.213 0.213 0.107 0.48 0.32 0.587 0.533 0.143 0.254 0.228 0.557 0.228 0.88s-0.084 0.626-0.233 0.889l0.005-0.009zM29.6 24.427c0.195-0.209 0.315-0.491 0.315-0.8s-0.12-0.591-0.316-0.801l0.001 0.001c-0.267-0.213-0.533-0.32-0.907-0.267h-0.533v2.133h0.533c0.32 0 0.64-0.107 0.907-0.267zM21.813 3.627s9.28 3.2 9.067 7.84v7.893s-9.28-3.2-9.067-7.893v-7.84zM39.2 17.493c1.76-1.067 3.733-1.76 5.867-1.973v-2.453c-2.425 0.857-4.431 2.398-5.842 4.389l-0.025 0.037z"></path>
<path  d="M38.133 18.24c1.44-2.667 3.947-4.693 6.933-5.707v-7.093s-13.227 4.587-12.96 11.2v11.2l1.547-0.587v-1.067c0.32-3.093 1.92-5.92 4.48-7.947z"></path>
<path  d="M36.853 22.4c0.107-0.747 0.213-1.547 0.48-2.293-1.678 1.77-2.738 4.14-2.826 6.756l-0 0.017 2.56-1.227c-0.213-1.067-0.32-2.133-0.213-3.2zM37.387 22.4c-0.029 0.287-0.045 0.62-0.045 0.957 0 0.718 0.075 1.419 0.217 2.096l-0.012-0.066c3.627-1.973 7.68-5.067 7.52-8.747v-0.32c-2.56 0.267-5.013 1.28-6.88 2.933-0.427 1.067-0.693 2.133-0.8 3.2z"></path>
</symbol>
<symbol id="icon-Logo6" viewBox="0 0 57 32">
<path  d="M28.48 14.613c-0.202-0.265-0.323-0.6-0.323-0.964 0-0.036 0.001-0.072 0.004-0.107l-0 0.005v-1.547c0-0.427 0.107-0.8 0.32-1.067 0.213-0.213 0.587-0.373 1.067-0.373 0.533 0 0.907 0.107 1.067 0.32 0.267 0.267 0.373 0.587 0.32 0.907v0.373h-0.853v-0.693c0-0.107-0.107-0.16-0.16-0.213-0.088-0.067-0.199-0.107-0.32-0.107v0c-0.121 0-0.232 0.040-0.321 0.108l0.001-0.001c-0.107 0-0.16 0.107-0.16 0.213v2.24l0.053 0.533 0.213 0.107 0.213 0.053c0.107 0 0.213 0 0.32-0.107l0.107-0.213v-0.747h0.907v0.373c0 0.32-0.053 0.64-0.267 0.96-0.213 0.213-0.533 0.32-1.067 0.32s-0.907-0.107-1.067-0.373zM32.16 14.613c-0.267-0.213-0.373-0.533-0.373-1.067v-1.6c0-0.427 0.107-0.8 0.373-1.067 0.213-0.16 0.533-0.32 1.067-0.32s0.907 0.16 1.12 0.373c0.213 0.213 0.32 0.533 0.32 1.067v1.6c0 0.427-0.107 0.8-0.32 1.067-0.213 0.213-0.587 0.32-1.067 0.32-0.533 0-0.907-0.107-1.12-0.373zM33.653 14.24l0.107-0.48v-1.973c0-0.16 0-0.32-0.107-0.48l-0.16-0.107c-0.040-0.011-0.086-0.017-0.133-0.017s-0.093 0.006-0.137 0.018l0.004-0.001c-0.032-0.007-0.069-0.011-0.107-0.011s-0.075 0.004-0.11 0.011l0.003-0.001-0.16 0.107c-0.107 0.16-0.16 0.32-0.107 0.48v1.973c0 0.16 0 0.32 0.107 0.533l0.16 0.107c0.071 0.030 0.154 0.047 0.24 0.047s0.169-0.017 0.244-0.048l-0.004 0.002 0.16-0.16zM35.733 10.667h0.96l0.693 2.933 0.747-2.987h0.907l0.053 4.32h-0.64l-0.107-2.987-0.693 2.987h-0.533l-0.693-2.987-0.16 2.987h-0.693l0.107-4.267zM40.16 10.667h1.493c0.853 0 1.28 0.373 1.28 1.173s-0.48 1.173-1.333 1.173h-0.533v1.92h-0.907v-4.267zM41.44 12.48h0.267l0.213-0.16 0.16-0.48-0.053-0.373-0.053-0.107-0.16-0.107c-0.107-0.053-0.267-0.107-0.373-0.053h-0.373v1.28h0.373zM44.267 10.667h0.907l1.067 4.267h-0.907l-0.16-1.013h-0.907l-0.213 1.013h-0.853l1.067-4.267zM45.067 13.44l-0.373-1.813-0.32 1.813h0.693zM46.987 10.667h0.64l1.227 2.4v-2.4h0.747v4.267h-0.587l-1.227-2.56v2.56h-0.853v-4.267zM51.36 13.333l-1.013-2.667h0.853l0.64 1.653 0.533-1.707h0.853l-1.013 2.667v1.653h-0.853v-1.6zM29.867 16.8v0.267h-0.693v1.707h-0.373v-1.707h-0.747v-0.267h1.813zM32.213 18.773h-0.373l-0.213-0.533h-1.013l-0.213 0.533h-0.32l0.907-1.973h0.32l0.907 1.973zM30.72 18.133h0.853l-0.373-0.8-0.053-0.213v0.107l-0.053 0.107-0.373 0.8zM33.76 18.613h0.16c0.115-0.001 0.225-0.021 0.328-0.056l-0.008 0.002 0.107-0.053v-0.48h-0.427v-0.16h0.693v0.747c-0.167 0.11-0.366 0.186-0.58 0.213l-0.007 0.001h-0.267c-0.16 0-0.32 0-0.48-0.107-0.142-0.031-0.267-0.087-0.377-0.162l0.004 0.002-0.213-0.32-0.107-0.427c0-0.16 0-0.267 0.107-0.427 0-0.107 0.107-0.213 0.213-0.32 0.107-0.053 0.213-0.16 0.373-0.16 0.173-0.073 0.374-0.115 0.585-0.115 0.057 0 0.113 0.003 0.168 0.009l-0.007-0.001c0.142 0.035 0.266 0.090 0.378 0.163l-0.005-0.003 0.16 0.107-0.053 0.107h-0.213l-0.16-0.107c-0.109-0.054-0.235-0.092-0.368-0.106l-0.005-0c-0.138 0.014-0.265 0.051-0.379 0.109l0.006-0.003-0.267 0.107-0.16 0.267v0.693c0 0.107 0.107 0.213 0.213 0.267 0.142 0.133 0.334 0.214 0.545 0.214 0.015 0 0.029-0 0.044-0.001l-0.002 0zM36.64 18.56h1.013v0.213h-1.28v-1.973h0.267v1.76zM38.667 18.773h-0.267v-1.973h0.32v1.973zM39.84 16.8v0.053l1.387 1.493v-1.547h0.267v1.973h-0.267l-1.333-1.493v1.547h-0.267v-1.973h0.16zM43.733 16.8v0.213h-1.067v0.693h0.853v0.213h-0.853v0.64h1.067v0.213h-1.387v-1.973h1.387zM11.307 4.64l13.76 3.36v11.733l-13.76-3.36v-11.733zM10.4 3.573v13.493l15.52 3.733v-13.333l-15.467-3.84z"></path>
<path  d="M18.72 27.040l-15.52-3.787v-13.44l15.52 3.84v13.333z"></path>
<path  d="M10.667 4.48l13.547 3.307-5.76 5.013-13.547-3.36 5.76-4.96zM10.4 3.627l-7.2 6.187 15.52 3.84 7.2-6.24-15.467-3.787zM19.573 26.293l6.4-5.493-6.4-1.547v7.040z"></path>
</symbol>
<symbol id="icon-smartphone" viewBox="0 0 20 32">
<path d="M17 0h-14c-1.6 0-3 1.4-3 3v26c0 1.6 1.4 3 3 3h14c1.6 0 3-1.4 3-3v-26c0-1.6-1.4-3-3-3zM3 2h14c0.6 0 1 0.4 1 1v21h-16v-21c0-0.6 0.4-1 1-1zM17 30h-14c-0.552 0-1-0.448-1-1v0-3h16v3c0 0.6-0.4 1-1 1z"></path>
<path  d="M4.8 27.4v1.4c-0.4 0.4-1.2 0.4-1.6 0-0.248-0.139-0.413-0.4-0.413-0.7s0.165-0.561 0.409-0.698l0.004-0.002c0.4-0.2 1.2-0.2 1.6 0z"></path>
</symbol>
<symbol id="icon-twitter" viewBox="0 0 32 32">
<path  d="M32 6.078c-1.1 0.493-2.376 0.857-3.713 1.028l-0.068 0.007c1.36-0.817 2.382-2.078 2.873-3.579l0.013-0.046c-1.197 0.722-2.591 1.273-4.076 1.573l-0.084 0.014c-1.2-1.279-2.9-2.076-4.787-2.076-3.622 0-6.558 2.936-6.558 6.558 0 0.001 0 0.003 0 0.004v-0c0 0.52 0.043 1.021 0.152 1.496-5.454-0.266-10.28-2.88-13.522-6.861-0.564 0.949-0.899 2.092-0.902 3.313v0.001c0 2.272 1.171 4.286 2.914 5.451-1.091-0.030-2.107-0.325-2.994-0.823l0.033 0.017v0.072c0.003 3.165 2.236 5.807 5.213 6.44l0.043 0.008c-0.499 0.136-1.071 0.215-1.662 0.215-0.020 0-0.041-0-0.061-0l0.003 0c-0.419 0-0.843-0.024-1.242-0.112 0.85 2.598 3.261 4.509 6.13 4.57-2.215 1.746-5.045 2.8-8.122 2.8-0.004 0-0.008 0-0.013 0h0.001c-0.018 0-0.040 0-0.062 0-0.531 0-1.055-0.034-1.569-0.099l0.061 0.006c2.826 1.846 6.287 2.944 10.004 2.944 0.021 0 0.042-0 0.063-0h-0.003c12.072 0 18.672-10 18.672-18.669 0-0.288-0.010-0.57-0.024-0.848 1.299-0.936 2.39-2.064 3.258-3.355l0.030-0.047z"></path>
</symbol>
<symbol id="icon-Vector" viewBox="0 0 32 32">
<path fill="#00000" d="M32 3.2l-3.2-3.2-12.8 12.8-12.8-12.8-3.2 3.2 12.8 12.8-12.8 12.8 3.2 3.2 12.8-12.8 12.8 12.8 3.2-3.2-12.8-12.8 12.8-12.8z"></path>
</symbol>
</defs>
</svg>
